{"title":"ATLANTIS.2.MILOS.RETURN.NORDIC.SOUND.NORDIC.SUBS.DVDRip.ISO","uid":5713685,"size":4681355264,"categoryP":"video","categoryS":"movies","magnet":"?xt=urn:btih:4ed561a52436808664e730c259f0cff3c5dd6fe6&amp;dn=ATLANTIS.2.MILOS.RETURN.NORDIC.SOUND.NORDIC.SUBS.DVDRip.ISO&amp;tr=udp%3A%2F%2Ftracker.openbittorrent.com%3A80&amp;tr=udp%3A%2F%2Fopen.demonii.com%3A1337&amp;tr=udp%3A%2F%2Ftracker.coppersurfer.tk%3A6969&amp;tr=udp%3A%2F%2Fexodus.desync.com%3A6969","seeders":0,"leechers":1,"uploader":null,"files":1,"time":1279998881,"description":"Atlantis 2: MiloÃ‚Â´s Return\n\nI undervattenstaden Atlantis blomstrar ÃƒÂ¥ter livet. Men ovan jord sker nu mystiska \n\nsaker som verkar ha nÃƒÂ¥got att gÃƒÂ¶ra med staden pÃƒÂ¥ havets botten. Innan Atlantis-\n\nexperten Milo vet ordet av har han och Kida blivit indragna i tre spÃƒÂ¤nnande och \n\nfartfyllda ÃƒÂ¤ventyr!\n\nTillsammans med sina vÃƒÂ¤nner beger de sig fÃƒÂ¶rst till NordsjÃƒÂ¶n, dÃƒÂ¤r odjuret Kraken \n\nsÃƒÂ¤gs hÃƒÂ¥lla hela havet i skrÃƒÂ¤ck. I en fiskeby mÃƒÂ¶ter de folk som verkar veta mer ÃƒÂ¤n de \n\nvÃƒÂ¥gar berÃƒÂ¤tta... Strax dÃƒÂ¤refter hittas fÃƒÂ¶remÃƒÂ¥l frÃƒÂ¥n Atlantis i en ÃƒÂ¶kenstad. En skum \n\naffÃƒÂ¤rsman verkar ha nÃƒÂ¥got med detta att gÃƒÂ¶ra, men ligger han ÃƒÂ¤ven bakom de mystiska \n\nsandstormarna som sveper genom ÃƒÂ¶knen? Lika mystiskt ÃƒÂ¤r det inbrott som sker hemma \n\nhos professor Whitmore. NÃƒÂ¥gon har stulit ett urgammalt nordiskt spjut, som i orÃƒÂ¤tta \n\nhÃƒÂ¤nder kan leda till RagnarÃƒÂ¶k - jordens undergÃƒÂ¥ng. Klarar gÃƒÂ¤nget som en gÃƒÂ¥ng rÃƒÂ¤ddade \n\nAtlantis, ÃƒÂ¤ven att rÃƒÂ¤dda hela jorden?\n\n\n\n\nComplete name                    : Atlantis.2.Milos.Return.(2003)Nordisk tal. Nordisk text.\nFormat                           : ISO\nFormat/Info                      : Audio Video Interleave\nFile size                        : 4,3 GB\nDuration                         : 1h 17mn\nOverall bit rate                 : 1 340 Kbps\nWriting application              : Lavf52.31.0\n\nVideo\nID                               : 0\nFormat                           : MPEG-4 Visual\nFormat profile                   : Simple@L1\nFormat settings, BVOP            : No\nFormat settings, QPel            : No\nFormat settings, GMC             : No warppoints\nFormat settings, Matrix          : Default (H.263)\nCodec ID                         : FMP4\nDuration                         : 1h 17mn\nBit rate                         : 1 199 Kbps\nWidth                            : 720 pixels\nHeight                           : 576 pixels\nDisplay aspect ratio             : 16:9\nFrame rate                       : 25.000 fps\nStandard                         : PAL\nColor space                      : YUV\nChroma subsampling               : 4:2:0\nBit depth                        : 8 bits\nScan type                        : Progressive\nBits/(Pixel*Frame)               : 0.116\nStream size                      : 661 MiB (89%)\nWriting library                  : Lavc52.20.0\n\nAudio\nID                               : 1\nFormat                           : MPEG Audio\nFormat version                   : Version 1\nFormat profile                   : Layer 3\nMode                             : Joint stereo\nMode extension                   : MS Stereo\nCodec ID                         : 55\nCodec ID/Hint                    : MP3\nDuration                         : 1h 17mn\nBit rate mode                    : Constant\nBit rate                         : 128 Kbps\nChannel(s)                       : 2 channels\nSampling rate                    : 48.0 KHz\nStream size                      : 70.6 MiB (10%)\nAlignment                        : Aligned on interleaves\nInterleave, duration             : 24 ms (0.60 video frame)\nWriting library                  : LAME3.97","torrent":{"xt":"urn:btih:4ed561a52436808664e730c259f0cff3c5dd6fe6","amp;dn":"ATLANTIS.2.MILOS.RETURN.NORDIC.SOUND.NORDIC.SUBS.DVDRip.ISO","amp;tr":["udp%3A%2F%2Ftracker.openbittorrent.com%3A80","udp%3A%2F%2Fopen.demonii.com%3A1337","udp%3A%2F%2Ftracker.coppersurfer.tk%3A6969","udp%3A%2F%2Fexodus.desync.com%3A6969"],"infoHash":"4ed561a52436808664e730c259f0cff3c5dd6fe6","infoHashBuffer":{"type":"Buffer","data":[78,213,97,165,36,54,128,134,100,231,48,194,89,240,207,243,197,221,111,230]},"announce":[],"urlList":[]}}